<svg xmlns="http://www.w3.org/2000/svg" viewBox="0 0 320 180" fill="none">
  <rect x="20" y="22" width="280" height="136" rx="6" stroke="#475569" stroke-width="1.5" />
  <rect x="52" y="44" width="216" height="92" rx="4" stroke="#3B82F6" stroke-dasharray="4 3" fill="none" />
  <line x1="88" y1="44" x2="88" y2="136" stroke="#64748B" stroke-width="1" />
  <line x1="136" y1="44" x2="136" y2="136" stroke="#64748B" stroke-width="1" />
  <line x1="184" y1="44" x2="184" y2="136" stroke="#64748B" stroke-width="1" />
  <line x1="232" y1="44" x2="232" y2="136" stroke="#64748B" stroke-width="1" />
  <line x1="52" y1="72" x2="268" y2="72" stroke="#64748B" stroke-width="1" />
  <line x1="52" y1="102" x2="268" y2="102" stroke="#64748B" stroke-width="1" />
  <circle cx="88" cy="72" r="4" fill="#22C55E" fill-opacity="0.9" />
  <circle cx="136" cy="72" r="4" fill="#22C55E" fill-opacity="0.9" />
  <circle cx="184" cy="72" r="4" fill="#22C55E" fill-opacity="0.9" />
  <circle cx="232" cy="72" r="4" fill="#22C55E" fill-opacity="0.9" />
  <circle cx="88" cy="102" r="4" fill="#22C55E" fill-opacity="0.9" />
  <circle cx="136" cy="102" r="4" fill="#22C55E" fill-opacity="0.9" />
  <circle cx="184" cy="102" r="4" fill="#22C55E" fill-opacity="0.9" />
  <circle cx="232" cy="102" r="4" fill="#22C55E" fill-opacity="0.9" />
  <path d="M40 148H280" stroke="#F59E0B" stroke-width="1.2" stroke-dasharray="5 3" />
  <text x="26" y="18" fill="#94A3B8" font-size="10" font-family="system-ui,sans-serif">tQ / ÆB</text>
</svg>
